<?xml version="1.0" encoding="utf-8"?>
<!-- Generator: Adobe Illustrator 19.0.0, SVG Export Plug-In . SVG Version: 6.00 Build 0)  -->
<svg version="1.1" id="Layer_1" xmlns="http://www.w3.org/2000/svg" xmlns:xlink="http://www.w3.org/1999/xlink" x="0px" y="0px"
	 viewBox="0 0 64.581 80.25" enable-background="new 0 0 64.581 80.25" xml:space="preserve">
<g>
	<path fill="#008DFF" d="M59.048,26.759l-0.008-0.008c0-0.004,0-0.004,0-0.012c-7.396-7.37-19.36-7.37-26.74,0.008l-0.024,0.025
		l13.349,13.353L32.276,53.478c0,0.016,0.008,0.033,0.008,0.033l0.009-0.008c-7.379,7.383-7.387,19.348-0.009,26.735l0.009,0.013
		l26.731-26.735c0.008-0.004,0.016-0.008,0.016-0.012v-0.008c0,0,0.016-0.004,0.024-0.016
		C66.427,46.099,66.418,34.138,59.048,26.759z"/>
	<path fill="#5FFF00" d="M32.276,53.482L18.918,40.125l13.358-13.353l0.04,0.033c-0.008-0.045-0.008-0.07-0.008-0.07
		c-0.009,0.012-0.009,0.012-0.016,0.016c7.387-7.383,7.387-19.356,0.008-26.747L32.292,0L5.561,26.731
		c-0.008,0.004-0.016,0.016-0.016,0.02l0,0c-0.008,0.008-0.016,0.012-0.025,0.02c-7.362,7.383-7.362,19.34,0.016,26.718
		c0,0.004,0,0.004,0,0.004c0.008,0.008,0.008,0.012,0.008,0.012c7.395,7.379,19.361,7.379,26.739,0l0.025-0.028c0,0,0-0.013,0-0.029
		L32.276,53.482z"/>
</g>
</svg>
