<?xml version="1.0" encoding="utf-8"?>
<!-- Generator: Adobe Illustrator 19.0.0, SVG Export Plug-In . SVG Version: 6.00 Build 0)  -->
<svg version="1.1" id="Layer_2" xmlns="http://www.w3.org/2000/svg" xmlns:xlink="http://www.w3.org/1999/xlink" x="0px" y="0px"
	 viewBox="0 0 659.286 800.55" enable-background="new 0 0 659.286 800.55" xml:space="preserve">
<g>
	<circle cx="397.876" cy="36.791" r="6.332"/>
	<circle cx="64.945" cy="65.652" r="6.332"/>
	<path d="M56.241,74.355c2.399,2.4,5.552,3.6,8.704,3.6c2.995,0,5.983-1.097,8.332-3.264l6.015,6.016V94.62l24.292,24.292v33.544
		l-8.729,8.729v100.521L79.991,276.57v73.385l-13.432,13.433v86.731l16.784,16.783v20.217l17.617,17.616
		c-0.781,1.635-1.207,3.43-1.207,5.296c0,3.288,1.281,6.379,3.605,8.703c2.325,2.325,5.416,3.605,8.704,3.605
		c3.288,0,6.379-1.28,8.704-3.605c2.325-2.324,3.605-5.415,3.605-8.703s-1.28-6.379-3.605-8.703
		c-2.325-2.325-5.416-3.605-8.704-3.605c-2.534,0-4.947,0.768-6.987,2.181l-14.574-14.574v-24.125l-15.188-15.188V367.87
		l15.953-15.953V279.37l14.534-14.534V166.37l9.288-9.288v-40.376L88.108,89.724V45.633c3.96-0.296,7.094-3.605,7.094-7.639
		c0-4.228-3.44-7.668-7.668-7.668s-7.668,3.44-7.668,7.668c0,4.084,3.213,7.423,7.242,7.646v44.497l26.981,26.981v39.548
		l-9.288,9.288v98.466l-14.534,14.534v72.547l-15.953,15.953v78.977l15.188,15.188v24.125l14.762,14.762
		c-0.313,0.257-0.615,0.531-0.906,0.822c-0.752,0.752-1.382,1.591-1.908,2.484l-17.107-17.107v-20.217l-16.784-16.783v-85.903
		l13.432-13.433v-73.385l14.865-14.865V161.599l8.729-8.729v-34.373L80.293,94.206V80.293l-6.308-6.309
		c4.447-4.822,4.344-12.356-0.336-17.036c-4.799-4.8-12.609-4.799-17.408,0c-2.325,2.325-3.605,5.416-3.605,8.704
		C52.636,68.94,53.917,72.031,56.241,74.355z M80.865,37.995c0-3.677,2.991-6.668,6.668-6.668s6.668,2.991,6.668,6.668
		s-2.991,6.668-6.668,6.668S80.865,41.671,80.865,37.995z M104.065,502.036c2.136-2.137,4.976-3.312,7.997-3.312
		c3.021,0,5.861,1.176,7.997,3.312c2.136,2.136,3.312,4.976,3.312,7.996s-1.176,5.86-3.312,7.996
		c-2.136,2.137-4.976,3.312-7.997,3.312c-3.021,0-5.86-1.176-7.997-3.312c-2.136-2.136-3.312-4.976-3.312-7.996
		S101.928,504.171,104.065,502.036z M56.948,57.655c2.205-2.205,5.101-3.307,7.997-3.307c2.896,0,5.792,1.103,7.997,3.307
		c4.409,4.41,4.409,11.584,0,15.993c-4.41,4.41-11.585,4.409-15.994,0c-2.136-2.136-3.312-4.976-3.312-7.997
		C53.636,62.631,54.812,59.792,56.948,57.655z"/>
	<path d="M75.095,248.192c2.983-0.12,5.932-1.303,8.204-3.576c4.799-4.799,4.799-12.608,0-17.407
		c-2.273-2.273-5.221-3.456-8.204-3.576v-16.078c3.995-0.26,7.168-3.583,7.168-7.643c0-4.228-3.44-7.668-7.668-7.668
		s-7.668,3.44-7.668,7.668c0,4.059,3.173,7.383,7.168,7.643v16.078c-2.983,0.12-5.931,1.303-8.204,3.576
		c-2.325,2.325-3.605,5.416-3.605,8.704c0,3.288,1.281,6.379,3.605,8.704c2.272,2.273,5.22,3.455,8.204,3.576v17.795l-11.42,11.42
		c-1.35-1.186-3.115-1.912-5.049-1.912c-4.228,0-7.668,3.44-7.668,7.668s3.44,7.668,7.668,7.668s7.668-3.44,7.668-7.668
		c0-1.934-0.726-3.699-1.912-5.049l11.713-11.713V248.192z M64.294,283.163c0,3.677-2.991,6.668-6.668,6.668
		s-6.668-2.991-6.668-6.668s2.991-6.668,6.668-6.668S64.294,279.486,64.294,283.163z M67.927,199.913
		c0-3.677,2.991-6.668,6.668-6.668s6.668,2.991,6.668,6.668s-2.991,6.668-6.668,6.668S67.927,203.589,67.927,199.913z
		 M66.598,243.909c-2.136-2.136-3.312-4.976-3.312-7.997c0-3.021,1.176-5.86,3.312-7.997c2.205-2.205,5.101-3.307,7.997-3.307
		c2.896,0,5.792,1.103,7.997,3.307c4.409,4.41,4.409,11.584,0,15.993C78.182,248.318,71.007,248.318,66.598,243.909z"/>
	<circle cx="74.595" cy="235.913" r="6.332"/>
	<path d="M306.977,425.54c-1.351-1.186-3.115-1.912-5.049-1.912c-4.228,0-7.668,3.439-7.668,7.668s3.44,7.668,7.668,7.668
		s7.668-3.439,7.668-7.668c0-1.935-0.726-3.699-1.912-5.049l11.713-11.713v-18.209c2.983-0.12,5.932-1.303,8.204-3.576
		c4.799-4.799,4.799-12.608,0-17.407c-2.273-2.273-5.221-3.456-8.204-3.576v-16.078c3.995-0.26,7.168-3.583,7.168-7.643
		c0-4.228-3.44-7.668-7.668-7.668s-7.668,3.44-7.668,7.668c0,4.059,3.173,7.383,7.168,7.643v16.078
		c-2.983,0.12-5.931,1.303-8.204,3.576c-2.325,2.325-3.605,5.416-3.605,8.704c0,3.288,1.281,6.379,3.605,8.704
		c2.272,2.273,5.22,3.455,8.204,3.576v17.795L306.977,425.54z M308.596,431.296c0,3.677-2.991,6.668-6.668,6.668
		s-6.668-2.991-6.668-6.668s2.991-6.668,6.668-6.668S308.596,427.62,308.596,431.296z M312.229,348.046
		c0-3.677,2.991-6.668,6.668-6.668s6.668,2.991,6.668,6.668s-2.991,6.668-6.668,6.668S312.229,351.723,312.229,348.046z
		 M310.9,392.043c-2.136-2.136-3.312-4.976-3.312-7.997c0-3.021,1.176-5.86,3.312-7.997c2.205-2.205,5.101-3.307,7.997-3.307
		c2.896,0,5.792,1.103,7.997,3.307c4.409,4.41,4.409,11.584,0,15.993C322.484,396.453,315.309,396.452,310.9,392.043z"/>
	<circle cx="318.897" cy="384.046" r="6.332"/>
	<circle cx="130.095" cy="344.163" r="6.332"/>
	<circle cx="71.972" cy="561.649" r="6.331"/>
	<circle cx="112.061" cy="510.032" r="6.331"/>
	<circle cx="239.876" cy="340.916" r="6.331"/>
	<circle cx="409.685" cy="226.972" r="6.331"/>
	<circle cx="32.881" cy="693.628" r="6.331"/>
	<circle cx="493.969" cy="376.648" r="6.331"/>
	<circle cx="612.031" cy="112.895" r="6.332"/>
	<circle cx="362.01" cy="539.958" r="6.331"/>
	<circle cx="85.996" cy="617.032" r="6.331"/>
	<circle cx="194.917" cy="556.826" r="6.331"/>
	<circle cx="235.007" cy="608.443" r="6.331"/>
	<path d="M658.286,19.818v55.836l-17.252,17.252c-1.358-1.217-3.145-1.964-5.107-1.964c-4.228,0-7.668,3.44-7.668,7.668
		s3.44,7.668,7.668,7.668s7.668-3.44,7.668-7.668c0-1.906-0.704-3.648-1.859-4.991l17.551-17.551V19.404L639.883,0h-1.414
		L658.286,19.818z M642.595,98.61c0,3.677-2.991,6.668-6.668,6.668s-6.668-2.991-6.668-6.668s2.991-6.668,6.668-6.668
		S642.595,94.933,642.595,98.61z"/>
	<path d="M631.786,9.568v46.336l-20.328,20.328v24.382c-3.072,0.14-5.945,1.391-8.131,3.578c-2.325,2.325-3.605,5.416-3.605,8.703
		s1.28,6.378,3.605,8.703c2.189,2.189,5.059,3.437,8.131,3.578v13.478l-17.014,17.014c-1.35-1.186-3.115-1.912-5.049-1.912
		c-4.228,0-7.668,3.44-7.668,7.668s3.44,7.668,7.668,7.668s7.668-3.44,7.668-7.668c0-1.934-0.726-3.699-1.912-5.049l17.307-17.307
		v-13.885c3.126-0.106,6.053-1.361,8.277-3.585c2.325-2.325,3.605-5.416,3.605-8.703s-1.28-6.378-3.605-8.703
		c-2.226-2.226-5.154-3.476-8.277-3.583V76.646l20.328-20.328V9.154L623.633,0h-1.414L631.786,9.568z M596.063,161.424
		c0,3.677-2.991,6.668-6.668,6.668s-6.668-2.991-6.668-6.668s2.991-6.668,6.668-6.668S596.063,157.748,596.063,161.424z
		 M620.029,104.899c2.136,2.136,3.312,4.976,3.312,7.996s-1.176,5.86-3.312,7.996c-2.137,2.136-4.977,3.312-7.997,3.312
		c-3.021,0-5.861-1.176-7.997-3.312c-2.136-2.136-3.312-4.976-3.312-7.996s1.176-5.86,3.312-7.996
		c2.117-2.118,4.932-3.294,7.927-3.312c0.025,0,0.05,0,0.075,0C615.055,101.587,617.891,102.762,620.029,104.899z"/>
	<path d="M629.282,49.096V12.875L616.407,0h-1.414l13.29,13.29v35.393l-67.098,67.098v58.225c-3.9,0.356-6.966,3.641-6.966,7.632
		c0,4.228,3.44,7.668,7.668,7.668s7.668-3.44,7.668-7.668c0-4.128-3.281-7.495-7.37-7.653v-57.79L629.282,49.096z M568.555,181.637
		c0,3.677-2.991,6.668-6.668,6.668s-6.668-2.991-6.668-6.668s2.991-6.668,6.668-6.668S568.555,177.96,568.555,181.637z"/>
	<path d="M617.411,10.818v38.711l-13.332,13.332h-11.9c-0.258-3.725-3.353-6.668-7.143-6.668c-3.805,0-6.908,2.966-7.145,6.711
		h-6.679l-27.423,27.424v141.999l-30.456,30.456v80.447l-3.218,3.218c-1.205-0.918-2.705-1.47-4.336-1.47
		c-3.959,0-7.168,3.209-7.168,7.168s3.209,7.168,7.168,7.168s7.168-3.209,7.168-7.168c0-1.966-0.793-3.746-2.074-5.041l3.461-3.461
		v-80.447l30.456-30.456V90.742l26.837-26.838h6.27c0.279,3.704,3.365,6.625,7.141,6.625c3.79,0,6.885-2.943,7.143-6.668h12.314
		l13.918-13.918V10.404L608.008,0h-1.414L617.411,10.818z"/>
	<path d="M610.13,13.318v29.18l-3.682,3.682c-1.36-1.23-3.157-1.986-5.131-1.986c-4.228,0-7.668,3.44-7.668,7.668
		s3.44,7.668,7.668,7.668s7.668-3.44,7.668-7.668c0-1.895-0.694-3.628-1.837-4.967l3.982-3.982V12.904L598.226,0h-1.414
		L610.13,13.318z M607.986,51.861c0,3.677-2.991,6.668-6.668,6.668s-6.668-2.991-6.668-6.668s2.991-6.668,6.668-6.668
		S607.986,48.184,607.986,51.861z"/>
	<path d="M561.172,0v56.375l-30.828,30.828v140.339l-27.035,27.035c-1.259-1.095-2.899-1.763-4.698-1.763
		c-3.959,0-7.168,3.209-7.168,7.168c0,3.959,3.209,7.168,7.168,7.168s7.168-3.209,7.168-7.168c0-1.799-0.668-3.439-1.763-4.698
		l27.328-27.328V87.617l30.828-30.828V0H561.172z"/>
	<path d="M528.17,0v51.54l-8.954,8.954v154.675l-36.325,36.325v52.813l4.837,4.837c-1.095,1.259-1.763,2.899-1.763,4.698
		c0,3.959,3.209,7.168,7.168,7.168s7.168-3.209,7.168-7.168c0-3.959-3.209-7.168-7.168-7.168c-1.799,0-3.439,0.668-4.698,1.763
		l-4.544-4.544v-51.985l36.325-36.325V60.908l8.954-8.954V0H528.17z"/>
	<path d="M519.259,0c-0.044,13.714-0.09,26.614-0.134,37.791l-9.676,9.676v147.757l-34.715,34.714v88.304l12.083,12.083
		c-1.234,1.4-1.916,3.174-1.916,5.057c0,2.048,0.798,3.974,2.246,5.422s3.374,2.246,5.422,2.246c2.048,0,3.974-0.797,5.422-2.246
		c1.448-1.449,2.246-3.374,2.246-5.422c0-2.048-0.798-3.973-2.246-5.421c-1.449-1.449-3.374-2.246-5.422-2.246
		c-1.877,0-3.646,0.677-5.045,1.904l-11.791-11.79v-87.476l34.715-34.714V47.88l9.674-9.674L520.124,38
		c0.029-7.219,0.081-21.001,0.136-38H519.259z M487.855,330.667c1.259-1.26,2.934-1.953,4.715-1.953
		c1.781,0,3.456,0.693,4.715,1.953c1.259,1.259,1.953,2.934,1.953,4.714c0,1.781-0.694,3.456-1.953,4.715
		c-1.26,1.26-2.934,1.953-4.715,1.953c-1.781,0-3.456-0.693-4.715-1.953s-1.953-2.934-1.953-4.715
		C485.902,333.601,486.595,331.927,487.855,330.667z"/>
	<path d="M502.109,190.302V48.555l13.321-13.321V0h-1v34.819l-13.321,13.321v141.748l-36.097,36.097v122.413l19.917,19.918
		c-2.104,2.279-3.269,5.213-3.269,8.332c0,3.288,1.281,6.378,3.605,8.703c2.325,2.325,5.416,3.606,8.704,3.606
		c3.288,0,6.379-1.281,8.704-3.606c2.325-2.325,3.605-5.416,3.605-8.703s-1.28-6.378-3.605-8.703
		c-2.325-2.325-5.416-3.606-8.704-3.606c-3.12,0-6.054,1.165-8.333,3.27l-19.624-19.625V226.399L502.109,190.302z M485.973,368.652
		c2.136-2.136,4.976-3.313,7.997-3.313c3.021,0,5.861,1.177,7.997,3.313c2.136,2.136,3.312,4.976,3.312,7.996
		s-1.176,5.86-3.312,7.996c-2.136,2.136-4.976,3.313-7.997,3.313c-3.021,0-5.86-1.177-7.997-3.313
		c-2.136-2.136-3.312-4.976-3.312-7.996S483.837,370.788,485.973,368.652z"/>
	<path d="M462.201,0v172.01l6.094,6.094c-1.062,1.221-1.717,2.803-1.755,4.539h-13.76l-35.038,35.039
		c-2.238-1.946-5.062-3.019-8.057-3.019c-3.288,0-6.379,1.281-8.704,3.606c-2.325,2.325-3.605,5.416-3.605,8.703
		c0,2.994,1.073,5.819,3.019,8.056l-31.169,31.168h-31.99l-8.254,8.254h-22.464l-19.222,19.222v100.395l-7.133,7.133
		c-3.008-2.658-7.616-2.558-10.492,0.318c-2.876,2.876-2.977,7.483-0.319,10.491l-9.06,9.061v3.997
		c-3.606,0.375-6.417,3.423-6.417,7.128c0,3.705,2.811,6.753,6.417,7.128v4.299l-38.512,38.512v6.553
		c-3.725,0.258-6.668,3.353-6.668,7.143c0,3.959,3.209,7.168,7.168,7.168c3.959,0,7.168-3.209,7.168-7.168
		c0-3.79-2.943-6.885-6.668-7.143v-6.138l38.512-38.512v-4.686c3.843-0.132,6.919-3.28,6.919-7.155c0-3.875-3.076-7.023-6.919-7.155
		v-3.555l8.768-8.769c1.396,1.22,3.161,1.893,5.033,1.893c2.048,0,3.974-0.798,5.422-2.246c2.864-2.865,2.976-7.445,0.353-10.454
		l7.428-7.428V294.086l18.636-18.636h22.464l8.254-8.254h31.99l31.436-31.436c2.314,2.268,5.364,3.52,8.609,3.52
		c3.288,0,6.379-1.281,8.704-3.606c2.325-2.325,3.605-5.416,3.605-8.703c0-3.245-1.252-6.295-3.52-8.609l34.72-34.72h13.391
		c0.417,3.562,3.441,6.327,7.114,6.327c3.959,0,7.168-3.209,7.168-7.168c0-3.959-3.209-7.168-7.168-7.168
		c-1.8,0-3.439,0.668-4.698,1.763l-5.801-5.801V0H462.201z M279.809,411.656c-1.26,1.26-2.934,1.953-4.715,1.953
		c-1.781,0-3.456-0.693-4.715-1.953c-2.6-2.6-2.6-6.83,0-9.43c1.3-1.3,3.007-1.95,4.715-1.95s3.416,0.65,4.715,1.95
		C282.409,404.826,282.409,409.056,279.809,411.656z M420.994,226.972c0,3.021-1.176,5.86-3.312,7.996
		c-2.136,2.136-4.976,3.313-7.997,3.313c-3.021,0-5.86-1.177-7.997-3.313c-2.136-2.136-3.312-4.976-3.312-7.996
		s1.176-5.86,3.312-7.996c2.136-2.136,4.976-3.313,7.997-3.313c3.021,0,5.861,1.177,7.997,3.313
		C419.818,221.112,420.994,223.952,420.994,226.972z"/>
	<path d="M452.261,0v160.674l-15.592,15.592h-39.73l-10.356,10.356v20.696l-7.157,7.157c-1.35-1.186-3.115-1.912-5.049-1.912
		c-4.228,0-7.668,3.44-7.668,7.668c0,1.99,0.768,3.799,2.016,5.163l-29.788,29.788H274.26l-9.621,9.621
		c-1.36-1.227-3.154-1.981-5.125-1.981c-4.228,0-7.668,3.44-7.668,7.668c0,1.971,0.754,3.765,1.981,5.125l-14.506,14.506v38.511
		c-3.078,0.136-5.955,1.386-8.148,3.579c-2.325,2.325-3.605,5.416-3.605,8.703s1.281,6.378,3.605,8.703
		c2.193,2.193,5.07,3.442,8.148,3.579v37.032L196.551,433v48.019c-3.995,0.26-7.168,3.583-7.168,7.643
		c0,4.229,3.44,7.668,7.668,7.668s7.668-3.439,7.668-7.668c0-4.06-3.173-7.383-7.168-7.643v-47.605l42.77-42.77v-37.441
		c3.121-0.111,6.041-1.365,8.26-3.584c2.325-2.325,3.605-5.416,3.605-8.703s-1.28-6.378-3.605-8.703
		c-2.219-2.22-5.139-3.474-8.26-3.584v-38.091l14.22-14.22c1.34,1.146,3.076,1.843,4.973,1.843c4.228,0,7.668-3.44,7.668-7.668
		c0-1.898-0.697-3.633-1.843-4.973l9.335-9.335h64.676l30.091-30.092c1.335,1.126,3.056,1.808,4.935,1.808
		c4.228,0,7.668-3.44,7.668-7.668c0-1.935-0.726-3.699-1.912-5.049l7.45-7.45v-20.696l9.771-9.771h39.73l16.178-16.178V0H452.261z
		 M203.719,488.663c0,3.677-2.991,6.668-6.668,6.668s-6.668-2.991-6.668-6.668s2.991-6.668,6.668-6.668
		S203.719,484.986,203.719,488.663z M247.873,332.92c2.136,2.136,3.312,4.976,3.312,7.996s-1.176,5.86-3.312,7.996
		c-2.136,2.136-4.976,3.313-7.997,3.313c-3.021,0-5.86-1.177-7.997-3.313c-2.136-2.136-3.312-4.976-3.312-7.996
		s1.176-5.86,3.312-7.996c2.136-2.136,4.976-3.313,7.997-3.313C242.897,329.607,245.737,330.784,247.873,332.92z M266.181,270.493
		c0,3.677-2.991,6.668-6.668,6.668s-6.668-2.991-6.668-6.668s2.991-6.668,6.668-6.668S266.181,266.816,266.181,270.493z
		 M381.044,220.232c0,3.677-2.991,6.668-6.668,6.668s-6.668-2.991-6.668-6.668s2.991-6.668,6.668-6.668
		S381.044,216.556,381.044,220.232z"/>
	<path d="M447.444,0v133.356l-7.94,7.94h-35.853l-4.385,4.385c-1.35-1.184-3.113-1.908-5.045-1.908c-4.228,0-7.668,3.44-7.668,7.668
		c0,1.933,0.724,3.696,1.909,5.046l-4.791,4.791h-20.7l-6.678,6.678v16.415l-10.694,10.694v12.197l-15.261,15.262h-94.363
		l-21.933,21.933v141.999l-30.456,30.456v113.435l-3.218,3.218c-1.205-0.918-2.704-1.47-4.336-1.47
		c-3.959,0-7.168,3.209-7.168,7.168c0,3.959,3.209,7.168,7.168,7.168c3.959,0,7.168-3.209,7.168-7.168
		c0-1.966-0.793-3.746-2.074-5.041l3.461-3.461V417.325l30.456-30.456V244.87l21.347-21.347h94.363l15.847-15.848v-12.197
		l10.694-10.694V168.37l6.092-6.092h20.7l5.083-5.084c1.351,1.188,3.117,1.915,5.053,1.915c4.228,0,7.668-3.44,7.668-7.668
		c0-1.936-0.727-3.702-1.916-5.053l4.092-4.091h35.853l8.526-8.526V0H447.444z M400.888,151.441c0,3.677-2.991,6.668-6.668,6.668
		s-6.668-2.991-6.668-6.668s2.991-6.668,6.668-6.668S400.888,147.764,400.888,151.441z"/>
	<path d="M440.369,0v127.448l-7.533,7.533h-25.905l-19.181-19.181h-24.11l-13.489,13.489v40.607l-14,14h-15.834l-7.539,7.539
		c-1.358-1.218-3.145-1.965-5.108-1.965c-4.228,0-7.668,3.44-7.668,7.668c0,1.963,0.748,3.75,1.966,5.108l-7.964,7.964h-62.286
		l-31.121,31.121V381.67l-27.035,27.035c-1.259-1.095-2.899-1.763-4.698-1.763c-3.959,0-7.168,3.209-7.168,7.168
		c0,3.959,3.209,7.168,7.168,7.168s7.168-3.209,7.168-7.168c0-1.799-0.668-3.44-1.763-4.698l27.328-27.328V241.745l30.535-30.535
		h62.286l8.262-8.262c1.343,1.155,3.084,1.858,4.99,1.858c4.228,0,7.668-3.44,7.668-7.668c0-1.906-0.703-3.648-1.858-4.99
		l7.251-7.251h15.834l14.586-14.586v-40.607l12.903-12.903h23.282l19.181,19.181h26.733l8.119-8.119V0H440.369z M314.337,197.138
		c0,3.677-2.991,6.668-6.668,6.668s-6.668-2.991-6.668-6.668s2.991-6.668,6.668-6.668S314.337,193.461,314.337,197.138z"/>
	<path d="M397.376,0v24.507c-6.554,0.265-11.809,5.665-11.809,12.284s5.255,12.018,11.809,12.284v18.381l-17.951,17.951
		c-1.35-1.186-3.115-1.912-5.049-1.912c-4.228,0-7.668,3.44-7.668,7.668s3.44,7.668,7.668,7.668s7.668-3.44,7.668-7.668
		c0-1.934-0.726-3.699-1.912-5.049l18.244-18.244V49.075c6.554-0.265,11.809-5.665,11.809-12.284s-5.255-12.018-11.809-12.284V0
		H397.376z M381.044,91.163c0,3.677-2.991,6.668-6.668,6.668s-6.668-2.991-6.668-6.668s2.991-6.668,6.668-6.668
		S381.044,87.486,381.044,91.163z M409.185,36.791c0,6.236-5.073,11.309-11.309,11.309s-11.309-5.073-11.309-11.309
		s5.073-11.309,11.309-11.309S409.185,30.555,409.185,36.791z"/>
	<path d="M273.586,0v66.149l6.263,6.263c-1.186,1.35-1.912,3.115-1.912,5.049c0,4.228,3.44,7.668,7.668,7.668
		s7.668-3.44,7.668-7.668s-3.44-7.668-7.668-7.668c-1.934,0-3.699,0.726-5.049,1.912l-5.97-5.97V0H273.586z M285.605,70.793
		c3.677,0,6.668,2.991,6.668,6.668s-2.991,6.668-6.668,6.668s-6.668-2.991-6.668-6.668S281.928,70.793,285.605,70.793z"/>
	<path d="M264.958,0v80.038L278.23,93.31h15.581c0.258,3.725,3.353,6.668,7.143,6.668c3.959,0,7.168-3.209,7.168-7.168
		c0-3.959-3.209-7.168-7.168-7.168c-3.79,0-6.885,2.943-7.143,6.668h-15.167l-12.686-12.686V0H264.958z"/>
	<path d="M251.607,0v93.139l22.272,22.272h17.188l10.845,10.845c-1.186,1.35-1.912,3.115-1.912,5.049
		c0,4.228,3.44,7.668,7.668,7.668c1.934,0,3.699-0.726,5.049-1.912l7.167,7.167c-1.095,1.259-1.763,2.899-1.763,4.698
		c0,3.959,3.209,7.168,7.168,7.168c3.959,0,7.168-3.209,7.168-7.168c0-3.959-3.209-7.168-7.168-7.168
		c-1.799,0-3.44,0.668-4.698,1.763l-7.167-7.167c1.186-1.35,1.912-3.115,1.912-5.049c0-4.228-3.44-7.668-7.668-7.668
		c-1.934,0-3.699,0.726-5.049,1.912l-11.138-11.138h-17.188l-21.687-21.687V0H251.607z M307.669,124.638
		c3.677,0,6.668,2.991,6.668,6.668s-2.991,6.668-6.668,6.668s-6.668-2.991-6.668-6.668S303.992,124.638,307.669,124.638z"/>
	<path d="M237.632,0v94.948l22.922,22.922v59.264l-5.565,5.565c-1.259-1.095-2.899-1.763-4.698-1.763
		c-3.959,0-7.168,3.209-7.168,7.168c0,3.959,3.209,7.168,7.168,7.168s7.168-3.209,7.168-7.168c0-1.799-0.668-3.44-1.763-4.698
		l5.858-5.858v-60.092l-22.922-22.922V0H237.632z"/>
	<path d="M206.792,0v189.121l6.094,6.094c-1.095,1.259-1.763,2.899-1.763,4.698c0,3.959,3.209,7.168,7.168,7.168
		c3.959,0,7.168-3.209,7.168-7.168c0-3.959-3.209-7.168-7.168-7.168c-1.799,0-3.44,0.668-4.698,1.763l-5.801-5.801V0H206.792z"/>
	<path d="M198.422,0v205.668l-8.954,8.954v154.675l-36.325,36.325v52.813l4.837,4.837c-1.095,1.259-1.763,2.899-1.763,4.698
		c0,3.959,3.209,7.168,7.168,7.168c3.959,0,7.168-3.209,7.168-7.168s-3.209-7.168-7.168-7.168c-1.799,0-3.44,0.668-4.698,1.763
		l-4.544-4.544v-51.985l36.325-36.325V215.036l8.954-8.954V0H198.422z"/>
	<path d="M189.377,191.918l-9.676,9.676v147.757l-34.715,34.714v88.304l12.083,12.083c-1.234,1.4-1.916,3.174-1.916,5.058
		c0,2.048,0.798,3.974,2.246,5.422s3.374,2.246,5.422,2.246c2.048,0,3.974-0.798,5.422-2.246c1.448-1.448,2.246-3.374,2.246-5.422
		c0-2.049-0.798-3.974-2.246-5.422c-1.449-1.448-3.374-2.246-5.422-2.246c-1.877,0-3.646,0.677-5.044,1.904l-11.791-11.79V384.48
		l34.715-34.714V202.008l9.674-9.674l0.001-0.206C190.73,102.83,190.752,38.955,190.659,0h-0.958
		C189.757,56.345,189.55,148.202,189.377,191.918z M158.107,484.795c1.259-1.26,2.934-1.953,4.715-1.953
		c1.781,0,3.456,0.693,4.715,1.953c1.259,1.259,1.953,2.934,1.953,4.715c0,1.78-0.694,3.455-1.953,4.715
		c-1.26,1.26-2.934,1.953-4.715,1.953c-1.781,0-3.456-0.693-4.715-1.953s-1.953-2.935-1.953-4.715
		C156.154,487.729,156.848,486.054,158.107,484.795z"/>
	<path d="M172.362,330.611V202.139l13.321-13.321V0h-1v188.404l-13.321,13.321v128.472l-36.097,36.097v122.413l19.917,19.918
		c-2.104,2.278-3.269,5.212-3.269,8.332c0,3.288,1.281,6.379,3.605,8.703c2.325,2.325,5.416,3.605,8.704,3.605
		c3.288,0,6.379-1.28,8.704-3.605c2.325-2.324,3.605-5.415,3.605-8.703s-1.28-6.379-3.605-8.703
		c-2.325-2.325-5.416-3.605-8.704-3.605c-3.12,0-6.054,1.165-8.333,3.269l-19.624-19.625V366.708L172.362,330.611z M156.225,508.961
		c2.136-2.137,4.976-3.312,7.997-3.312c3.021,0,5.861,1.176,7.997,3.312c2.136,2.136,3.312,4.976,3.312,7.996
		s-1.176,5.86-3.312,7.996c-2.136,2.137-4.976,3.312-7.997,3.312c-3.021,0-5.86-1.176-7.997-3.312
		c-2.136-2.136-3.312-4.976-3.312-7.996S154.089,511.097,156.225,508.961z"/>
	<path d="M175.74,0v189.763l-11.925,11.925v18.337l-27.1,27.1v25.994l12.672,12.671v46.356l-7.757,7.758
		c-0.596-1.622-1.531-3.146-2.83-4.445c-0.032-0.032-0.067-0.058-0.099-0.089l4.389-4.389v-40.857l-13.366-13.366v-33.589
		l26.286-26.286v-20.826l12.439-12.439V0h-1v183.203l-12.439,12.439v20.826l-26.286,26.286v34.417l13.366,13.366v40.029
		l-4.132,4.132c-4.831-4.019-12.038-3.769-16.566,0.761c-2.325,2.325-3.605,5.416-3.605,8.704c0,3.288,1.281,6.379,3.605,8.704
		c2.399,2.4,5.552,3.6,8.704,3.6c3.152,0,6.304-1.2,8.704-3.6c3.216-3.216,4.265-7.781,3.171-11.889l8.417-8.417v-47.184
		l-12.672-12.671V247.54l27.1-27.1v-18.337l11.925-11.925V0H175.74z M138.092,352.159c-4.41,4.41-11.585,4.409-15.994,0
		c-2.136-2.136-3.312-4.976-3.312-7.997c0-3.021,1.176-5.86,3.312-7.997c2.205-2.205,5.101-3.307,7.997-3.307
		c2.896,0,5.792,1.103,7.997,3.307C142.501,340.576,142.501,347.75,138.092,352.159z"/>
	<path d="M143.836,0v123.664c-3.995,0.26-7.168,3.583-7.168,7.643s3.173,7.383,7.168,7.643v22.507l-11.23,11.23v54.508
		l-15.912,15.912v32.683l-13.723,13.723v78.445l-14.771,14.771V399.3c-3.995,0.26-7.168,3.583-7.168,7.643
		c0,4.06,3.173,7.383,7.168,7.643v22.89l17.338,17.338v16.027c-3.995,0.26-7.168,3.583-7.168,7.643c0,4.229,3.44,7.668,7.668,7.668
		s7.668-3.439,7.668-7.668c0-4.06-3.173-7.383-7.168-7.643v-16.441l-17.338-17.338v-22.476c3.995-0.26,7.168-3.583,7.168-7.643
		c0-4.059-3.173-7.383-7.168-7.643v-16.16l14.771-14.771v-78.445l13.723-13.723v-32.683l15.912-15.912V173.1l11.23-11.23v-22.921
		c3.995-0.26,7.168-3.583,7.168-7.643s-3.173-7.383-7.168-7.643V0H143.836z M112.707,478.483c0,3.677-2.991,6.668-6.668,6.668
		s-6.668-2.991-6.668-6.668s2.991-6.668,6.668-6.668S112.707,474.806,112.707,478.483z M95.369,406.943
		c0,3.677-2.991,6.668-6.668,6.668s-6.668-2.991-6.668-6.668s2.991-6.668,6.668-6.668S95.369,403.266,95.369,406.943z
		 M151.004,131.306c0,3.677-2.991,6.668-6.668,6.668s-6.668-2.991-6.668-6.668s2.991-6.668,6.668-6.668
		S151.004,127.629,151.004,131.306z"/>
	<path d="M46.376,0v28.312c-3.995,0.26-7.168,3.583-7.168,7.643s3.173,7.383,7.168,7.643v150.108l-20.25,20.25v82.164l8.078,8.078
		c-1.038,1.244-1.664,2.843-1.664,4.589c0,3.959,3.209,7.168,7.168,7.168c3.959,0,7.168-3.209,7.168-7.168
		c0-3.959-3.209-7.168-7.168-7.168c-1.852,0-3.535,0.708-4.807,1.862l-7.775-7.775V214.37l20.25-20.25V43.597
		c3.995-0.26,7.168-3.583,7.168-7.643s-3.173-7.383-7.168-7.643V0H46.376z M53.544,35.955c0,3.677-2.991,6.668-6.668,6.668
		s-6.668-2.991-6.668-6.668s2.991-6.668,6.668-6.668S53.544,32.278,53.544,35.955z"/>
	<path d="M37.251,192.87V0h-1v192.456l-18.938,18.938V312.37l12.574,12.574h36.016l5.074,5.074v20.188l-12.926,12.926v92.988
		l16.021,16.021v17.479l20.276,20.276v28.06L79.986,552.32c-2.231-1.922-5.039-2.979-8.014-2.979c-3.288,0-6.379,1.28-8.704,3.605
		c-2.325,2.324-3.605,5.415-3.605,8.703s1.281,6.379,3.605,8.703c2.325,2.325,5.416,3.605,8.704,3.605
		c3.288,0,6.379-1.28,8.704-3.605c2.325-2.324,3.605-5.415,3.605-8.703c0-3.265-1.265-6.333-3.559-8.652L95.35,538.37v-28.888
		l-20.276-20.276v-17.479l-16.021-16.021v-92.16l12.926-12.926v-21.016l-5.66-5.66H30.302l-11.988-11.988V211.807L37.251,192.87z
		 M83.281,561.649c0,3.021-1.176,5.86-3.312,7.996c-2.136,2.137-4.976,3.312-7.997,3.312c-3.021,0-5.86-1.176-7.997-3.312
		c-2.136-2.136-3.312-4.976-3.312-7.996s1.176-5.86,3.312-7.996c2.136-2.137,4.976-3.312,7.997-3.312
		c3.021,0,5.861,1.176,7.997,3.312C82.105,555.789,83.281,558.628,83.281,561.649z"/>
	<path d="M25.314,192.393V0h-1v191.979l-14.058,14.058V317.99l16.879,16.879c-1.095,1.259-1.763,2.899-1.763,4.698
		c0,3.959,3.209,7.168,7.168,7.168c3.959,0,7.168-3.209,7.168-7.168c0-3.959-3.209-7.168-7.168-7.168
		c-1.799,0-3.44,0.668-4.698,1.763l-16.586-16.586V206.451L25.314,192.393z"/>
	<g>
		<polygon points="4.489,250.123 0,245.634 0,247.048 3.489,250.537 3.489,292.901 0,296.389 0,297.803 4.489,293.315 		"/>
		<path d="M56.332,332.398c-3.959,0-7.168,3.209-7.168,7.168c0,1.799,0.668,3.44,1.763,4.698L36.14,359.051h-8.315
			c-0.26-3.995-3.583-7.168-7.643-7.168s-7.383,3.173-7.643,7.168H4.583L0,354.468v1.414l4.169,4.169h8.371
			c0.26,3.995,3.583,7.168,7.643,7.168s7.383-3.173,7.643-7.168h8.729l15.079-15.079c1.259,1.095,2.899,1.763,4.698,1.763
			c3.959,0,7.168-3.209,7.168-7.168C63.5,335.607,60.291,332.398,56.332,332.398z M20.183,366.219c-3.677,0-6.668-2.991-6.668-6.668
			s2.991-6.668,6.668-6.668s6.668,2.991,6.668,6.668S23.86,366.219,20.183,366.219z"/>
	</g>
	<path d="M43.595,389.171c-4.059,0-7.383,3.173-7.643,7.168h-5.536L0,365.922v1.414l30.003,30.003h5.95
		c0.26,3.995,3.583,7.168,7.643,7.168c4.228,0,7.668-3.44,7.668-7.668S47.823,389.171,43.595,389.171z M43.595,403.507
		c-3.677,0-6.668-2.991-6.668-6.668s2.991-6.668,6.668-6.668s6.668,2.991,6.668,6.668S47.272,403.507,43.595,403.507z"/>
	<path d="M36.552,428.706v-14.104L0,378.05v1.414l35.552,35.552v13.69c-3.995,0.26-7.168,3.583-7.168,7.643
		c0,4.229,3.44,7.668,7.668,7.668s7.668-3.439,7.668-7.668C43.72,432.289,40.547,428.966,36.552,428.706z M36.052,443.017
		c-3.677,0-6.668-2.991-6.668-6.668s2.991-6.668,6.668-6.668s6.668,2.991,6.668,6.668S39.729,443.017,36.052,443.017z"/>
	<path d="M56.832,527.775v-14.569l-6.978-6.978v-33.272l-12.782-12.781H20.083L0,440.091v1.414l19.669,19.669h16.989l12.196,12.195
		v33.272l6.978,6.978v14.155c-3.995,0.26-7.168,3.583-7.168,7.643c0,4.229,3.44,7.668,7.668,7.668S64,539.646,64,535.417
		C64,531.358,60.827,528.034,56.832,527.775z M56.332,542.085c-3.677,0-6.668-2.991-6.668-6.668s2.991-6.668,6.668-6.668
		S63,531.741,63,535.417S60.009,542.085,56.332,542.085z"/>
	<path d="M15.271,467.725L0,452.454v1.414l14.857,14.857h19.812l8.426,8.426v26.446l-9.598,9.598
		c-1.188-0.874-2.65-1.396-4.238-1.396c-3.959,0-7.168,3.209-7.168,7.168s3.209,7.168,7.168,7.168s7.168-3.209,7.168-7.168
		c0-2.01-0.83-3.824-2.162-5.126l9.83-9.83v-27.274l-9.012-9.012H15.271z"/>
	<polygon points="0,548.939 27.279,576.217 27.279,603.206 0,630.484 0,631.898 28.279,603.62 28.279,575.803 0,547.525 	"/>
	<polygon points="0,560.743 17.876,578.62 17.876,599.706 0,617.582 0,618.996 18.876,600.12 18.876,578.206 0,559.329 	"/>
	<path d="M85.996,604.723c-0.001,0-0.001,0-0.002,0c-3.287,0-6.377,1.28-8.702,3.604c-2.325,2.325-3.605,5.416-3.604,8.704
		c0,3.12,1.164,6.054,3.268,8.334l-15.239,15.239c-1.395-1.918-3.651-3.173-6.199-3.173c-4.228,0-7.668,3.439-7.668,7.668
		c0,1.935,0.726,3.699,1.912,5.049l-17.307,17.307v13.885c-3.127,0.106-6.053,1.361-8.277,3.585
		c-2.325,2.324-3.605,5.415-3.605,8.703s1.281,6.379,3.605,8.703c2.226,2.226,5.15,3.479,8.277,3.584v23.962l-20.328,20.328v47.164
		l3.18,3.18h1.414l-3.594-3.594V750.62l20.328-20.328v-24.383c3.072-0.141,5.945-1.39,8.131-3.577
		c2.325-2.324,3.605-5.415,3.605-8.703s-1.28-6.379-3.605-8.703c-2.189-2.189-5.059-3.437-8.131-3.578V667.87l17.014-17.014
		c1.351,1.186,3.115,1.912,5.049,1.912c4.228,0,7.668-3.439,7.668-7.668c0-1.314-0.333-2.551-0.918-3.633l15.395-15.394
		c2.279,2.103,5.213,3.268,8.333,3.268c3.288,0,6.379-1.28,8.704-3.605c2.325-2.324,3.605-5.416,3.604-8.703
		C98.304,610.245,92.783,604.723,85.996,604.723z M40.878,685.632c2.136,2.136,3.312,4.976,3.312,7.996s-1.176,5.86-3.312,7.996
		c-2.117,2.118-4.932,3.294-7.927,3.312c-0.025,0-0.05,0-0.075,0c-3.019,0-5.854-1.174-7.992-3.312
		c-2.136-2.136-3.312-4.976-3.312-7.996s1.176-5.86,3.312-7.996s4.976-3.312,7.997-3.312
		C35.902,682.32,38.742,683.497,40.878,685.632z M55.518,651.767c-3.677,0-6.668-2.991-6.668-6.668s2.991-6.668,6.668-6.668
		s6.668,2.991,6.668,6.668S59.195,651.767,55.518,651.767z M93.993,625.028c-2.136,2.136-4.976,3.312-7.997,3.312
		s-5.861-1.176-7.997-3.312c-2.136-2.136-3.312-4.977-3.312-7.997c0-3.021,1.176-5.86,3.312-7.997
		c2.136-2.136,4.975-3.312,7.995-3.312c0.001,0,0.001,0,0.002,0c6.235,0,11.308,5.073,11.308,11.309
		C97.305,620.052,96.129,622.892,93.993,625.028z"/>
	<path d="M59.876,735.995c-3.79,0-6.885,2.943-7.143,6.668H40.419l-13.918,13.918v39.539l4.43,4.43h1.414l-4.844-4.844v-38.711
		l13.332-13.332h11.9c0.258,3.725,3.353,6.668,7.143,6.668c3.959,0,7.168-3.209,7.168-7.168
		C67.044,739.204,63.835,735.995,59.876,735.995z"/>
	<path d="M43.595,746.995c-4.228,0-7.668,3.439-7.668,7.668c0,1.895,0.694,3.628,1.837,4.967l-3.982,3.982v30.008l6.93,6.93h1.414
		l-7.344-7.344v-29.18l3.681-3.681c1.361,1.23,3.157,1.986,5.131,1.986c4.228,0,7.668-3.439,7.668-7.668
		S47.823,746.995,43.595,746.995z M43.595,761.331c-3.677,0-6.668-2.991-6.668-6.668s2.991-6.668,6.668-6.668
		s6.668,2.991,6.668,6.668S47.272,761.331,43.595,761.331z"/>
	<path d="M111.657,695.535c-3.959,0-7.168,3.209-7.168,7.168c0,3.79,2.943,6.885,6.668,7.143v13.76L83.073,751.69v48.86h1v-48.446
		l28.085-28.085v-14.174c3.725-0.258,6.668-3.353,6.668-7.143C118.825,698.744,115.616,695.535,111.657,695.535z"/>
	<path d="M158.997,674.458c-4.228,0-7.668,3.439-7.668,7.668c0,4.06,3.173,7.383,7.168,7.643v13.69l-70.646,70.646v26.445h1v-26.031
		l70.646-70.646v-14.104c3.995-0.26,7.168-3.583,7.168-7.643C166.665,677.897,163.225,674.458,158.997,674.458z M158.997,688.793
		c-3.677,0-6.668-2.991-6.668-6.668s2.991-6.668,6.668-6.668s6.668,2.991,6.668,6.668S162.674,688.793,158.997,688.793z"/>
	<path d="M166.54,713.967c-4.059,0-7.383,3.173-7.643,7.168h-5.949l-55.382,55.382v24.033h1v-23.619l54.796-54.796h5.535
		c0.26,3.995,3.583,7.168,7.643,7.168c4.228,0,7.668-3.439,7.668-7.668S170.768,713.967,166.54,713.967z M166.54,728.303
		c-3.677,0-6.668-2.991-6.668-6.668s2.991-6.668,6.668-6.668s6.668,2.991,6.668,6.668S170.217,728.303,166.54,728.303z"/>
	<path d="M179.277,771.74c-1.799,0-3.44,0.668-4.698,1.763l-15.079-15.079h-8.728c-0.26-3.995-3.583-7.168-7.643-7.168
		s-7.383,3.173-7.643,7.168h-8.371l-22.568,22.569v19.557h1v-19.143l21.982-21.983h7.957c0.26,3.995,3.583,7.168,7.643,7.168
		s7.383-3.173,7.643-7.168h8.314l14.786,14.786c-1.095,1.259-1.763,2.899-1.763,4.698c0,3.959,3.209,7.168,7.168,7.168
		c3.959,0,7.168-3.209,7.168-7.168C186.445,774.949,183.236,771.74,179.277,771.74z M143.128,765.591
		c-3.677,0-6.668-2.991-6.668-6.668s2.991-6.668,6.668-6.668s6.668,2.991,6.668,6.668S146.805,765.591,143.128,765.591z"/>
	<path d="M155.486,771.74c-3.959,0-7.168,3.209-7.168,7.168c0,1.799,0.668,3.44,1.763,4.698l-16.879,16.879v0.065h1.349
		l16.237-16.237c1.259,1.095,2.899,1.763,4.698,1.763c3.959,0,7.168-3.209,7.168-7.168
		C162.654,774.949,159.445,771.74,155.486,771.74z"/>
	<path d="M207.226,556.826c0-3.288-1.28-6.379-3.605-8.703c-2.325-2.325-5.417-3.605-8.704-3.605s-6.378,1.28-8.703,3.605
		c-2.325,2.324-3.606,5.415-3.606,8.703s1.281,6.379,3.606,8.703c2.325,2.325,5.416,3.605,8.703,3.605
		c2.975,0,5.783-1.057,8.014-2.979l14.364,14.364v28.06l-20.276,20.276v17.479l-16.021,16.021v92.988l12.926,12.926v20.188
		l-5.074,5.074h-36.016l-7.019,7.019h1.414l6.019-6.019h36.016l5.66-5.66v-21.016l-12.926-12.926v-92.16l16.021-16.021v-17.479
		l20.276-20.276v-28.888l-14.627-14.627C205.961,563.159,207.226,560.091,207.226,556.826z M202.914,564.822
		c-2.136,2.137-4.977,3.312-7.997,3.312s-5.86-1.176-7.996-3.312c-2.136-2.136-3.313-4.976-3.313-7.996s1.177-5.86,3.313-7.996
		c2.136-2.137,4.976-3.312,7.996-3.312s5.861,1.176,7.997,3.312c2.136,2.136,3.312,4.976,3.312,7.996
		S205.05,562.686,202.914,564.822z"/>
	<path d="M235.007,596.134c-3.288,0-6.379,1.28-8.704,3.605c-2.325,2.324-3.606,5.415-3.606,8.703c0,1.866,0.426,3.662,1.207,5.296
		l-17.616,17.616v20.217l-16.784,16.783v86.731l13.433,13.433v32.031h1v-32.445l-13.433-13.433v-85.903l16.784-16.783v-20.217
		l17.107-17.107c0.526,0.893,1.156,1.732,1.908,2.484c0.29,0.29,0.593,0.564,0.906,0.822l-14.762,14.762v24.125l-15.188,15.188
		v78.977l15.953,15.953v33.578h1v-33.992l-15.953-15.953v-78.148l15.188-15.188v-24.125l14.574-14.574
		c2.04,1.413,4.453,2.181,6.987,2.181c3.288,0,6.378-1.28,8.703-3.605c2.325-2.324,3.605-5.415,3.605-8.703s-1.28-6.379-3.605-8.703
		C241.385,597.415,238.295,596.134,235.007,596.134z M243.003,616.439c-2.136,2.137-4.976,3.312-7.996,3.312
		s-5.861-1.176-7.997-3.312c-2.136-2.136-3.313-4.976-3.313-7.996s1.177-5.86,3.313-7.996c2.136-2.137,4.977-3.312,7.997-3.312
		s5.86,1.176,7.996,3.312c2.136,2.136,3.312,4.976,3.312,7.996S245.139,614.303,243.003,616.439z"/>
	<path d="M228.985,632.324c-4.228,0-7.668,3.439-7.668,7.668c0,4.06,3.173,7.383,7.168,7.643v16.027L211.147,681v22.89
		c-3.995,0.26-7.168,3.583-7.168,7.643s3.173,7.383,7.168,7.643v16.574l14.771,14.771v50.031h1v-50.445l-14.771-14.771v-16.16
		c3.995-0.26,7.168-3.583,7.168-7.643s-3.173-7.383-7.168-7.643v-22.476l17.338-17.338v-16.441c3.995-0.26,7.168-3.583,7.168-7.643
		C236.653,635.763,233.213,632.324,228.985,632.324z M218.315,711.532c0,3.677-2.991,6.668-6.668,6.668s-6.668-2.991-6.668-6.668
		s2.991-6.668,6.668-6.668S218.315,707.855,218.315,711.532z M228.985,646.66c-3.677,0-6.668-2.991-6.668-6.668
		s2.991-6.668,6.668-6.668s6.668,2.991,6.668,6.668S232.661,646.66,228.985,646.66z"/>
	<path d="M350.201,557.292c-3.959,0-7.168,3.209-7.168,7.168c0,1.966,0.793,3.746,2.074,5.041l-3.461,3.461v80.447l-30.456,30.456
		V800.55h1V684.279l30.456-30.456v-80.447l3.218-3.218c1.205,0.918,2.704,1.47,4.336,1.47c3.959,0,7.168-3.209,7.168-7.168
		S354.16,557.292,350.201,557.292z"/>
	<path d="M357.369,649.456c-3.959,0-7.168,3.209-7.168,7.168c0,1.799,0.668,3.44,1.763,4.698l-27.328,27.327V800.55h1V689.063
		l27.035-27.034c1.259,1.095,2.899,1.763,4.698,1.763c3.959,0,7.168-3.209,7.168-7.168
		C364.537,652.665,361.328,649.456,357.369,649.456z"/>
	<path d="M370.015,602.762c0-3.959-3.209-7.168-7.168-7.168s-7.168,3.209-7.168,7.168c0,3.959,3.209,7.168,7.168,7.168
		c1.799,0,3.44-0.668,4.698-1.763l4.544,4.544v51.985l-36.325,36.325v99.528h1v-99.114l36.325-36.325v-52.813l-4.837-4.837
		C369.348,606.202,370.015,604.562,370.015,602.762z"/>
	<path d="M371.078,581.223c0-2.048-0.798-3.974-2.246-5.422s-3.374-2.246-5.422-2.246c-2.048,0-3.974,0.798-5.422,2.246
		c-1.448,1.448-2.246,3.374-2.246,5.422c0,2.049,0.798,3.974,2.246,5.422c1.449,1.448,3.374,2.246,5.422,2.246
		c1.877,0,3.646-0.677,5.044-1.904l11.791,11.79v87.476l-34.715,34.714v79.583h1v-79.168l34.715-34.714v-88.304l-12.083-12.083
		C370.397,584.881,371.078,583.107,371.078,581.223z M368.125,585.938c-1.259,1.26-2.934,1.953-4.715,1.953
		c-1.781,0-3.456-0.693-4.715-1.953c-1.259-1.259-1.953-2.934-1.953-4.715c0-1.78,0.694-3.455,1.953-4.715
		c1.26-1.26,2.934-1.953,4.715-1.953c1.781,0,3.456,0.693,4.715,1.953s1.953,2.935,1.953,4.715
		C370.078,583.004,369.385,584.679,368.125,585.938z"/>
	<path d="M374.32,539.958c0-3.288-1.281-6.379-3.605-8.703c-2.325-2.325-5.416-3.605-8.704-3.605c-3.288,0-6.379,1.28-8.704,3.605
		c-2.325,2.324-3.605,5.415-3.605,8.703s1.28,6.379,3.605,8.703c2.325,2.325,5.416,3.605,8.704,3.605
		c3.12,0,6.054-1.165,8.333-3.269l19.624,19.625v121.584l-36.097,36.098v74.247h1v-73.833l36.097-36.098V568.208L371.05,548.29
		C373.155,546.012,374.32,543.078,374.32,539.958z M370.007,547.954c-2.136,2.137-4.976,3.312-7.997,3.312
		c-3.021,0-5.861-1.176-7.997-3.312c-2.136-2.136-3.312-4.976-3.312-7.996s1.176-5.86,3.312-7.996
		c2.136-2.137,4.976-3.312,7.997-3.312c3.021,0,5.86,1.176,7.997,3.312c2.136,2.136,3.312,4.976,3.312,7.996
		S372.143,545.818,370.007,547.954z"/>
	<path d="M467.176,654.741c-4.228,0-7.668,3.439-7.668,7.668c0,1.608,0.5,3.1,1.349,4.334l-14.735,14.734v10.445l-32.848,32.848
		v27.816l36.952,36.951v11.012h1v-11.426l-36.952-36.951v-26.988l32.848-32.848v-10.445l14.363-14.362
		c1.405,1.56,3.432,2.548,5.692,2.548c4.228,0,7.668-3.439,7.668-7.668S471.404,654.741,467.176,654.741z M467.176,669.077
		c-3.677,0-6.668-2.991-6.668-6.668s2.991-6.668,6.668-6.668s6.668,2.991,6.668,6.668S470.853,669.077,467.176,669.077z"/>
	<path d="M460.008,682.711c-3.959,0-7.168,3.209-7.168,7.168c0,1.97,0.795,3.753,2.081,5.048l-32.245,32.245v21.914l36.75,36.75
		v14.713h1v-15.127l-36.75-36.75v-21.086l32.004-32.003c1.204,0.915,2.7,1.464,4.329,1.464c3.959,0,7.168-3.209,7.168-7.168
		S463.967,682.711,460.008,682.711z"/>
	<path d="M446.426,726.586l8.972-8.972c1.246,1.049,2.854,1.683,4.61,1.683c3.959,0,7.168-3.209,7.168-7.168
		s-3.209-7.168-7.168-7.168s-7.168,3.209-7.168,7.168c0,1.842,0.701,3.517,1.843,4.786l-9.257,9.257v24.664l27.375,27.375v22.338h1
		v-22.752l-27.375-27.375V726.586z"/>
</g>
</svg>
